<svg xmlns="http://www.w3.org/2000/svg" width="280" height="261" viewBox="0 0 280 261" fill="none">
    <path d="M234.045 26.61C253.095 35.61 271.47 49.11 277.245 66.81C283.02 84.51 276.195 106.485 272.145 128.235C268.095 149.985 266.67 171.435 259.32 197.76C252.045 224.01 238.77 255.06 218.445 259.935C198.195 264.81 170.97 243.435 148.32 227.31C125.67 211.11 107.595 200.085 82.545 186.585C57.4949 173.01 25.395 157.035 10.545 131.385C-4.30505 105.735 -1.90505 70.41 15.3449 45.66C32.5199 20.91 64.545 6.65999 93.645 2.23499C122.745 -2.19001 148.92 3.05999 172.02 8.00999C195.045 12.96 214.92 17.535 234.045 26.61Z" fill="#F7DB00"/>
</svg>