<svg xmlns="http://www.w3.org/2000/svg" width="600" height="600" viewBox="0 0 600 600" fill="none">
    <g transform="translate(300 300)">
        <path d="M78.5,-117.7C103.9,-105.7,128.4,-87.7,136.1,-64.1C143.8,-40.5,134.7,-11.2,129.3,17.8C123.9,46.8,122,75.4,112.2,110.5C102.5,145.5,84.8,186.9,57.7,193.4C30.7,199.9,-5.6,171.4,-35.8,149.9C-66,128.3,-90.1,113.6,-123.5,95.6C-156.9,77.5,-199.7,56.2,-219.5,22C-239.3,-12.2,-236.1,-59.3,-213.1,-92.3C-190.2,-125.3,-147.5,-144.3,-108.7,-150.2C-69.9,-156.1,-35,-149.1,-4.2,-142.5C26.5,-135.9,53,-129.8,78.5,-117.7Z" fill="#f7db00"></path>
    </g>

</svg>