<svg xmlns="http://www.w3.org/2000/svg" width="349" height="298" viewBox="0 0 349 298" fill="none">
  <path d="M231.025 13.9049C259.975 21.1049 293.2 32.8049 317.125 57.0299C341.05 81.2549 355.525 118.005 345.325 147.405C335.2 176.805 300.325 198.855 268.6 208.755C236.95 218.655 208.375 216.48 179.575 234.705C150.775 252.93 121.675 291.555 94.15 296.505C66.55 301.455 40.45 272.73 39.55 239.88C38.65 207.03 62.95 170.055 54.025 135.405C45.1 100.68 2.95 68.2049 0.399999 45.4799C-2.15 22.7549 34.75 9.77993 66.85 4.07993C98.95 -1.69507 126.1 -0.120076 151.9 1.97992C177.7 4.07992 202.15 6.77992 231.025 13.9049Z" fill="#F7DB00"/>
</svg>