<svg width="136" height="88" viewBox="0 0 136 88" fill="none"
    xmlns="http://www.w3.org/2000/svg">
    <rect width="5.53" height="20" transform="translate(17 19)" fill="black"/>
    <path d="M17 39V24.2363H22.53V39H17ZM17 21.8863V19H22.53V21.8863H17Z" fill="black"/>
    <path d="M27.9108 38.8801V11.1361H34.4388V13.9201C35.4308 12.9601 36.4708 12.1921 37.5588 11.6161C38.6788 11.0081 39.8788 10.7041 41.1588 10.7041C42.3108 10.7041 43.2228 10.9921 43.8948 11.5681C44.5668 12.1121 45.0628 12.8481 45.3828 13.7761C45.7028 14.7041 45.8628 15.7121 45.8628 16.8001V38.8801H39.3348V18.0961C39.3348 17.2641 39.2068 16.6241 38.9508 16.1761C38.6948 15.7281 38.1988 15.5041 37.4628 15.5041C37.0148 15.5041 36.5188 15.6321 35.9748 15.8881C35.4628 16.1441 34.9508 16.4641 34.4388 16.8481V38.8801H27.9108Z" fill="black"/>
    <path d="M60.5972 39.312C59.5732 39.312 58.6132 39.072 57.7172 38.592C56.8212 38.112 55.9892 37.52 55.2212 36.816V38.88H48.6932V0H55.2212V13.248C56.0212 12.48 56.8852 11.872 57.8132 11.424C58.7732 10.944 59.7972 10.704 60.8852 10.704C62.1332 10.704 63.1572 10.992 63.9572 11.568C64.7572 12.144 65.3812 12.912 65.8292 13.872C66.2772 14.8 66.5812 15.808 66.7412 16.896C66.9332 17.952 67.0292 18.976 67.0292 19.968V29.376C67.0292 31.2 66.8052 32.864 66.3572 34.368C65.9412 35.872 65.2532 37.072 64.2932 37.968C63.3652 38.864 62.1332 39.312 60.5972 39.312ZM58.1012 34.752C58.8052 34.752 59.3172 34.528 59.6372 34.08C59.9892 33.6 60.2132 32.976 60.3092 32.208C60.4372 31.408 60.5012 30.544 60.5012 29.616V19.68C60.5012 18.816 60.4372 18.048 60.3092 17.376C60.1812 16.672 59.9412 16.112 59.5892 15.696C59.2692 15.28 58.7572 15.072 58.0532 15.072C57.5412 15.072 57.0452 15.2 56.5652 15.456C56.0852 15.68 55.6372 15.936 55.2212 16.224V33.744C55.6372 34.032 56.0852 34.272 56.5652 34.464C57.0772 34.656 57.5892 34.752 58.1012 34.752Z" fill="black"/>
    <path d="M77.9202 39.3121C75.8402 39.3121 74.1442 38.9281 72.8322 38.1601C71.5202 37.3601 70.5442 36.2081 69.9042 34.7041C69.2962 33.1681 68.9922 31.3281 68.9922 29.1841V20.8321C68.9922 18.6241 69.2962 16.7681 69.9042 15.2641C70.5442 13.7601 71.5202 12.6241 72.8322 11.8561C74.1762 11.0881 75.8722 10.7041 77.9202 10.7041C80.1282 10.7041 81.8402 11.1201 83.0562 11.9521C84.3042 12.7841 85.1842 14.0001 85.6962 15.6001C86.2402 17.1681 86.5122 19.0881 86.5122 21.3601V25.2961H75.4722V30.7681C75.4722 31.6641 75.5522 32.4001 75.7122 32.9761C75.9042 33.5521 76.1922 33.9681 76.5762 34.2241C76.9602 34.4801 77.4242 34.6081 77.9682 34.6081C78.5442 34.6081 79.0082 34.4801 79.3602 34.2241C79.7122 33.9361 79.9682 33.5361 80.1282 33.0241C80.2882 32.4801 80.3682 31.8081 80.3682 31.0081V28.7041H86.4642V30.5761C86.4642 33.3921 85.7602 35.5521 84.3522 37.0561C82.9442 38.5601 80.8002 39.3121 77.9202 39.3121ZM75.4722 22.0801H80.3682V19.4401C80.3682 18.4801 80.2882 17.7121 80.1282 17.1361C79.9682 16.5281 79.7122 16.0961 79.3602 15.8401C79.0082 15.5521 78.5122 15.4081 77.8722 15.4081C77.2962 15.4081 76.8322 15.5521 76.4802 15.8401C76.1282 16.1281 75.8722 16.6081 75.7122 17.2801C75.5522 17.9521 75.4722 18.9121 75.4722 20.1601V22.0801Z" fill="black"/>
    <path d="M96.4781 39.3121C94.1421 39.3121 92.2221 38.6881 90.7181 37.4401C89.2141 36.1921 88.1421 34.3681 87.5021 31.9681L92.3501 30.0961C92.7341 31.6001 93.2461 32.7521 93.8861 33.5521C94.5261 34.3521 95.3581 34.7521 96.3821 34.7521C97.1501 34.7521 97.7261 34.5601 98.1101 34.1761C98.4941 33.7921 98.6861 33.2641 98.6861 32.5921C98.6861 31.8241 98.4461 31.1361 97.9661 30.5281C97.5181 29.8881 96.7341 29.1041 95.6141 28.1761L92.2541 25.3441C91.0381 24.2881 90.0461 23.2161 89.2781 22.1281C88.5421 21.0081 88.1741 19.6161 88.1741 17.9521C88.1741 16.4481 88.5101 15.1681 89.1821 14.1121C89.8861 13.0241 90.8301 12.1921 92.0141 11.6161C93.2301 11.0081 94.5741 10.7041 96.0461 10.7041C98.2861 10.7041 100.078 11.3761 101.422 12.7201C102.798 14.0321 103.678 15.7601 104.062 17.9041L99.7901 19.7281C99.6301 18.9601 99.3901 18.2561 99.0701 17.6161C98.7821 16.9441 98.3981 16.4001 97.9181 15.9841C97.4381 15.5681 96.8781 15.3601 96.2381 15.3601C95.5661 15.3601 95.0221 15.5681 94.6061 15.9841C94.2221 16.4001 94.0301 16.9281 94.0301 17.5681C94.0301 18.1121 94.2541 18.6721 94.7021 19.2481C95.1821 19.8241 95.8541 20.4801 96.7181 21.2161L100.126 24.2881C100.862 24.9281 101.566 25.6161 102.238 26.3521C102.91 27.0881 103.47 27.9201 103.918 28.8481C104.366 29.7441 104.59 30.7841 104.59 31.9681C104.59 33.5681 104.222 34.9121 103.486 36.0001C102.782 37.0881 101.806 37.9201 100.558 38.4961C99.3421 39.0401 97.9821 39.3121 96.4781 39.3121Z" fill="black"/>
    <path d="M114.177 39.216C112.417 39.216 111.025 38.928 110.001 38.352C109.009 37.776 108.305 36.944 107.889 35.856C107.473 34.768 107.265 33.472 107.265 31.968V15.456H104.481V11.136H107.265V2.83203H113.841V11.136H118.065V15.456H113.841V31.392C113.841 32.352 114.049 33.04 114.465 33.456C114.881 33.84 115.505 34.032 116.337 34.032C116.689 34.032 117.025 34.016 117.345 33.984C117.697 33.952 118.033 33.92 118.353 33.888V38.88C117.809 38.944 117.169 39.008 116.433 39.072C115.729 39.168 114.977 39.216 114.177 39.216Z" fill="black"/>
    <path d="M8.928 87.3121C6.848 87.3121 5.152 86.9281 3.84 86.1601C2.528 85.3601 1.552 84.2081 0.912 82.7041C0.304 81.1681 0 79.3281 0 77.1841V68.8321C0 66.6241 0.304 64.7681 0.912 63.2641C1.552 61.7601 2.528 60.6241 3.84 59.8561C5.184 59.0881 6.88 58.7041 8.928 58.7041C11.136 58.7041 12.848 59.1201 14.064 59.9521C15.312 60.7841 16.192 62.0001 16.704 63.6001C17.248 65.1681 17.52 67.0881 17.52 69.3601V73.2961H6.48V78.7681C6.48 79.6641 6.56 80.4001 6.72 80.9761C6.912 81.5521 7.2 81.9681 7.584 82.2241C7.968 82.4801 8.432 82.6081 8.976 82.6081C9.552 82.6081 10.016 82.4801 10.368 82.2241C10.72 81.9361 10.976 81.5361 11.136 81.0241C11.296 80.4801 11.376 79.8081 11.376 79.0081V76.7041H17.472V78.5761C17.472 81.3921 16.768 83.5521 15.36 85.0561C13.952 86.5601 11.808 87.3121 8.928 87.3121ZM6.48 70.0801H11.376V67.4401C11.376 66.4801 11.296 65.7121 11.136 65.1361C10.976 64.5281 10.72 64.0961 10.368 63.8401C10.016 63.5521 9.52 63.4081 8.88 63.4081C8.304 63.4081 7.84 63.5521 7.488 63.8401C7.136 64.1281 6.88 64.6081 6.72 65.2801C6.56 65.9521 6.48 66.9121 6.48 68.1601V70.0801Z" fill="black"/>
    <path d="M17.6995 86.8802L23.7475 71.9522L17.9395 59.1362H24.3715L27.8755 66.8162L30.9475 59.1362H36.5155L30.6115 72.8642L36.9475 86.8802H30.4675L26.6275 78.3842L23.4115 86.8802H17.6995Z" fill="black"/>
    <path d="M45.9436 87.3121C43.8636 87.3121 42.1676 86.9281 40.8556 86.1601C39.5436 85.3601 38.5676 84.2081 37.9276 82.7041C37.3196 81.1681 37.0156 79.3281 37.0156 77.1841V68.8321C37.0156 66.6241 37.3196 64.7681 37.9276 63.2641C38.5676 61.7601 39.5436 60.6241 40.8556 59.8561C42.1996 59.0881 43.8956 58.7041 45.9436 58.7041C48.1516 58.7041 49.8636 59.1201 51.0796 59.9521C52.3276 60.7841 53.2076 62.0001 53.7196 63.6001C54.2636 65.1681 54.5356 67.0881 54.5356 69.3601V73.2961H43.4956V78.7681C43.4956 79.6641 43.5756 80.4001 43.7356 80.9761C43.9276 81.5521 44.2156 81.9681 44.5996 82.2241C44.9836 82.4801 45.4476 82.6081 45.9916 82.6081C46.5676 82.6081 47.0316 82.4801 47.3836 82.2241C47.7356 81.9361 47.9916 81.5361 48.1516 81.0241C48.3116 80.4801 48.3916 79.8081 48.3916 79.0081V76.7041H54.4876V78.5761C54.4876 81.3921 53.7836 83.5521 52.3756 85.0561C50.9676 86.5601 48.8236 87.3121 45.9436 87.3121ZM43.4956 70.0801H48.3916V67.4401C48.3916 66.4801 48.3116 65.7121 48.1516 65.1361C47.9916 64.5281 47.7356 64.0961 47.3836 63.8401C47.0316 63.5521 46.5356 63.4081 45.8956 63.4081C45.3196 63.4081 44.8556 63.5521 44.5036 63.8401C44.1516 64.1281 43.8956 64.6081 43.7356 65.2801C43.5756 65.9521 43.4956 66.9121 43.4956 68.1601V70.0801Z" fill="black"/>
    <path d="M57.1095 86.8798V59.1358H63.6375V63.4078C64.5975 61.7758 65.5575 60.6078 66.5175 59.9038C67.4775 59.1678 68.5335 58.7998 69.6855 58.7998C69.8775 58.7998 70.0375 58.8158 70.1655 58.8478C70.3255 58.8478 70.5015 58.8638 70.6935 58.8958V65.6638C70.3095 65.5038 69.8775 65.3758 69.3975 65.2798C68.9495 65.1518 68.4855 65.0878 68.0055 65.0878C67.1415 65.0878 66.3575 65.2958 65.6535 65.7118C64.9495 66.1278 64.2775 66.8158 63.6375 67.7758V86.8798H57.1095Z" fill="black"/>
    <path d="M80.2394 87.3121C78.0954 87.3121 76.3674 86.9121 75.0554 86.1121C73.7754 85.2801 72.8314 84.1121 72.2234 82.6081C71.6474 81.0721 71.3594 79.2641 71.3594 77.1841V68.8321C71.3594 66.6881 71.6474 64.8641 72.2234 63.3601C72.8314 61.8561 73.7914 60.7041 75.1034 59.9041C76.4154 59.1041 78.1274 58.7041 80.2394 58.7041C82.2234 58.7041 83.8394 59.0241 85.0874 59.6641C86.3674 60.2721 87.2954 61.2161 87.8714 62.4961C88.4474 63.7441 88.7354 65.3281 88.7354 67.2481V69.5521H82.5914V67.1041C82.5914 66.1441 82.5114 65.3921 82.3514 64.8481C82.2234 64.2721 81.9834 63.8721 81.6314 63.6481C81.2794 63.3921 80.8154 63.2641 80.2394 63.2641C79.6634 63.2641 79.1994 63.4241 78.8474 63.7441C78.4954 64.0321 78.2394 64.5121 78.0794 65.1841C77.9514 65.8561 77.8874 66.7841 77.8874 67.9681V78.1441C77.8874 79.9361 78.0794 81.1521 78.4634 81.7921C78.8474 82.4001 79.4554 82.7041 80.2874 82.7041C80.9274 82.7041 81.4074 82.5601 81.7274 82.2721C82.0794 81.9841 82.3034 81.5681 82.3994 81.0241C82.5274 80.4481 82.5914 79.7601 82.5914 78.9601V75.9841H88.7354V78.6241C88.7354 80.4801 88.4314 82.0641 87.8234 83.3761C87.2474 84.6881 86.3194 85.6801 85.0394 86.3521C83.7914 86.9921 82.1914 87.3121 80.2394 87.3121Z" fill="black"/>
    <path d="M91.22 86.8799V59.1359H97.748V86.8799H91.22ZM91.22 54.7199V49.2959H97.748V54.7199H91.22Z" fill="black"/>
    <path d="M108.47 87.3121C106.134 87.3121 104.214 86.6881 102.71 85.4401C101.206 84.1921 100.134 82.3681 99.4942 79.9681L104.342 78.0961C104.726 79.6001 105.238 80.7521 105.878 81.5521C106.518 82.3521 107.35 82.7521 108.374 82.7521C109.142 82.7521 109.718 82.5601 110.102 82.1761C110.486 81.7921 110.678 81.2641 110.678 80.5921C110.678 79.8241 110.438 79.1361 109.958 78.5281C109.51 77.8881 108.726 77.1041 107.606 76.1761L104.246 73.3441C103.03 72.2881 102.038 71.2161 101.27 70.1281C100.534 69.0081 100.166 67.6161 100.166 65.9521C100.166 64.4481 100.502 63.1681 101.174 62.1121C101.878 61.0241 102.822 60.1921 104.006 59.6161C105.222 59.0081 106.566 58.7041 108.038 58.7041C110.278 58.7041 112.07 59.3761 113.414 60.7201C114.79 62.0321 115.67 63.7601 116.054 65.9041L111.782 67.7281C111.622 66.9601 111.382 66.2561 111.062 65.6161C110.774 64.9441 110.39 64.4001 109.91 63.9841C109.43 63.5681 108.87 63.3601 108.23 63.3601C107.558 63.3601 107.014 63.5681 106.598 63.9841C106.214 64.4001 106.022 64.9281 106.022 65.5681C106.022 66.1121 106.246 66.6721 106.694 67.2481C107.174 67.8241 107.846 68.4801 108.71 69.2161L112.118 72.2881C112.854 72.9281 113.558 73.6161 114.23 74.3521C114.902 75.0881 115.462 75.9201 115.91 76.8481C116.358 77.7441 116.582 78.7841 116.582 79.9681C116.582 81.5681 116.214 82.9121 115.478 84.0001C114.774 85.0881 113.798 85.9201 112.55 86.4961C111.334 87.0401 109.974 87.3121 108.47 87.3121Z" fill="black"/>
    <path d="M126.553 87.3121C124.473 87.3121 122.777 86.9281 121.465 86.1601C120.153 85.3601 119.177 84.2081 118.537 82.7041C117.929 81.1681 117.625 79.3281 117.625 77.1841V68.8321C117.625 66.6241 117.929 64.7681 118.537 63.2641C119.177 61.7601 120.153 60.6241 121.465 59.8561C122.809 59.0881 124.505 58.7041 126.553 58.7041C128.761 58.7041 130.473 59.1201 131.689 59.9521C132.937 60.7841 133.817 62.0001 134.329 63.6001C134.873 65.1681 135.145 67.0881 135.145 69.3601V73.2961H124.105V78.7681C124.105 79.6641 124.185 80.4001 124.345 80.9761C124.537 81.5521 124.825 81.9681 125.209 82.2241C125.593 82.4801 126.057 82.6081 126.601 82.6081C127.177 82.6081 127.641 82.4801 127.993 82.2241C128.345 81.9361 128.601 81.5361 128.761 81.0241C128.921 80.4801 129.001 79.8081 129.001 79.0081V76.7041H135.097V78.5761C135.097 81.3921 134.393 83.5521 132.985 85.0561C131.577 86.5601 129.433 87.3121 126.553 87.3121ZM124.105 70.0801H129.001V67.4401C129.001 66.4801 128.921 65.7121 128.761 65.1361C128.601 64.5281 128.345 64.0961 127.993 63.8401C127.641 63.5521 127.145 63.4081 126.505 63.4081C125.929 63.4081 125.465 63.5521 125.113 63.8401C124.761 64.1281 124.505 64.6081 124.345 65.2801C124.185 65.9521 124.105 66.9121 124.105 68.1601V70.0801Z" fill="black"/>
    <rect width="5.53" height="5.45" transform="translate(6.39999 33.5)" fill="#F7DB00"/>
    <path d="M6.39999 38.95V34.9269H11.93V38.95H6.39999ZM6.39999 34.2865V33.5H11.93V34.2865H6.39999Z" fill="#F7DB00"/>
    <rect width="6.55" height="5.5" transform="translate(91.2 49.25)" fill="#F7DB00"/>
    <path d="M91.2 54.75V50.69H97.75V54.75H91.2ZM91.2 50.0437V49.25H97.75V50.0437H91.2Z" fill="#F7DB00"/>
</svg>
