<svg width="265" height="40" viewBox="0 0 265 40" fill="none"
    xmlns="http://www.w3.org/2000/svg">
    <rect width="5.53" height="20" transform="translate(10 19)" fill="black"/>
    <path d="M10 39V24.2363H15.53V39H10ZM10 21.8863V19H15.53V21.8863H10Z" fill="black"/>
    <path d="M20.9108 38.8801V11.1361H27.4388V13.9201C28.4308 12.9601 29.4708 12.1921 30.5588 11.6161C31.6788 11.0081 32.8788 10.7041 34.1588 10.7041C35.3108 10.7041 36.2228 10.9921 36.8948 11.5681C37.5668 12.1121 38.0628 12.8481 38.3828 13.7761C38.7028 14.7041 38.8628 15.7121 38.8628 16.8001V38.8801H32.3348V18.0961C32.3348 17.2641 32.2068 16.6241 31.9508 16.1761C31.6948 15.7281 31.1988 15.5041 30.4628 15.5041C30.0148 15.5041 29.5188 15.6321 28.9748 15.8881C28.4628 16.1441 27.9508 16.4641 27.4388 16.8481V38.8801H20.9108Z" fill="black"/>
    <path d="M53.5972 39.312C52.5732 39.312 51.6132 39.072 50.7172 38.592C49.8212 38.112 48.9892 37.52 48.2212 36.816V38.88H41.6932V0H48.2212V13.248C49.0212 12.48 49.8852 11.872 50.8132 11.424C51.7732 10.944 52.7972 10.704 53.8852 10.704C55.1332 10.704 56.1572 10.992 56.9572 11.568C57.7572 12.144 58.3812 12.912 58.8292 13.872C59.2772 14.8 59.5812 15.808 59.7412 16.896C59.9332 17.952 60.0292 18.976 60.0292 19.968V29.376C60.0292 31.2 59.8052 32.864 59.3572 34.368C58.9412 35.872 58.2532 37.072 57.2932 37.968C56.3652 38.864 55.1332 39.312 53.5972 39.312ZM51.1012 34.752C51.8052 34.752 52.3172 34.528 52.6372 34.08C52.9892 33.6 53.2132 32.976 53.3092 32.208C53.4372 31.408 53.5012 30.544 53.5012 29.616V19.68C53.5012 18.816 53.4372 18.048 53.3092 17.376C53.1812 16.672 52.9412 16.112 52.5892 15.696C52.2692 15.28 51.7572 15.072 51.0532 15.072C50.5412 15.072 50.0452 15.2 49.5652 15.456C49.0852 15.68 48.6372 15.936 48.2212 16.224V33.744C48.6372 34.032 49.0852 34.272 49.5652 34.464C50.0772 34.656 50.5892 34.752 51.1012 34.752Z" fill="black"/>
    <path d="M70.9202 39.3121C68.8402 39.3121 67.1442 38.9281 65.8322 38.1601C64.5202 37.3601 63.5442 36.2081 62.9042 34.7041C62.2962 33.1681 61.9922 31.3281 61.9922 29.1841V20.8321C61.9922 18.6241 62.2962 16.7681 62.9042 15.2641C63.5442 13.7601 64.5202 12.6241 65.8322 11.8561C67.1762 11.0881 68.8722 10.7041 70.9202 10.7041C73.1282 10.7041 74.8402 11.1201 76.0562 11.9521C77.3042 12.7841 78.1842 14.0001 78.6962 15.6001C79.2402 17.1681 79.5122 19.0881 79.5122 21.3601V25.2961H68.4722V30.7681C68.4722 31.6641 68.5522 32.4001 68.7122 32.9761C68.9042 33.5521 69.1922 33.9681 69.5762 34.2241C69.9602 34.4801 70.4242 34.6081 70.9682 34.6081C71.5442 34.6081 72.0082 34.4801 72.3602 34.2241C72.7122 33.9361 72.9682 33.5361 73.1282 33.0241C73.2882 32.4801 73.3682 31.8081 73.3682 31.0081V28.7041H79.4642V30.5761C79.4642 33.3921 78.7602 35.5521 77.3522 37.0561C75.9442 38.5601 73.8002 39.3121 70.9202 39.3121ZM68.4722 22.0801H73.3682V19.4401C73.3682 18.4801 73.2882 17.7121 73.1282 17.1361C72.9682 16.5281 72.7122 16.0961 72.3602 15.8401C72.0082 15.5521 71.5122 15.4081 70.8722 15.4081C70.2962 15.4081 69.8322 15.5521 69.4802 15.8401C69.1282 16.1281 68.8722 16.6081 68.7122 17.2801C68.5522 17.9521 68.4722 18.9121 68.4722 20.1601V22.0801Z" fill="black"/>
    <path d="M89.4781 39.3121C87.1421 39.3121 85.2221 38.6881 83.7181 37.4401C82.2141 36.1921 81.1421 34.3681 80.5021 31.9681L85.3501 30.0961C85.7341 31.6001 86.2461 32.7521 86.8861 33.5521C87.5261 34.3521 88.3581 34.7521 89.3821 34.7521C90.1501 34.7521 90.7261 34.5601 91.1101 34.1761C91.4941 33.7921 91.6861 33.2641 91.6861 32.5921C91.6861 31.8241 91.4461 31.1361 90.9661 30.5281C90.5181 29.8881 89.7341 29.1041 88.6141 28.1761L85.2541 25.3441C84.0381 24.2881 83.0461 23.2161 82.2781 22.1281C81.5421 21.0081 81.1741 19.6161 81.1741 17.9521C81.1741 16.4481 81.5101 15.1681 82.1821 14.1121C82.8861 13.0241 83.8301 12.1921 85.0141 11.6161C86.2301 11.0081 87.5741 10.7041 89.0461 10.7041C91.2861 10.7041 93.078 11.3761 94.422 12.7201C95.798 14.0321 96.678 15.7601 97.062 17.9041L92.7901 19.7281C92.6301 18.9601 92.3901 18.2561 92.0701 17.6161C91.7821 16.9441 91.3981 16.4001 90.9181 15.9841C90.4381 15.5681 89.8781 15.3601 89.2381 15.3601C88.5661 15.3601 88.0221 15.5681 87.6061 15.9841C87.2221 16.4001 87.0301 16.9281 87.0301 17.5681C87.0301 18.1121 87.2541 18.6721 87.7021 19.2481C88.1821 19.8241 88.8541 20.4801 89.7181 21.2161L93.126 24.2881C93.862 24.9281 94.566 25.6161 95.238 26.3521C95.91 27.0881 96.47 27.9201 96.918 28.8481C97.366 29.7441 97.59 30.7841 97.59 31.9681C97.59 33.5681 97.222 34.9121 96.486 36.0001C95.782 37.0881 94.806 37.9201 93.558 38.4961C92.3421 39.0401 90.9821 39.3121 89.4781 39.3121Z" fill="black"/>
    <path d="M107.177 39.216C105.417 39.216 104.025 38.928 103.001 38.352C102.009 37.776 101.305 36.944 100.889 35.856C100.473 34.768 100.265 33.472 100.265 31.968V15.456H97.481V11.136H100.265V2.83203H106.841V11.136H111.065V15.456H106.841V31.392C106.841 32.352 107.049 33.04 107.465 33.456C107.881 33.84 108.505 34.032 109.337 34.032C109.689 34.032 110.025 34.016 110.345 33.984C110.697 33.952 111.033 33.92 111.353 33.888V38.88C110.809 38.944 110.169 39.008 109.433 39.072C108.729 39.168 107.977 39.216 107.177 39.216Z" fill="black"/>
    <path d="M137.928 39.0162C135.848 39.0162 134.152 38.6322 132.84 37.8642C131.528 37.0642 130.552 35.9122 129.912 34.4082C129.304 32.8722 129 31.0322 129 28.8882V20.5362C129 18.3282 129.304 16.4722 129.912 14.9682C130.552 13.4642 131.528 12.3282 132.84 11.5602C134.184 10.7922 135.88 10.4082 137.928 10.4082C140.136 10.4082 141.848 10.8242 143.064 11.6562C144.312 12.4882 145.192 13.7042 145.704 15.3042C146.248 16.8722 146.52 18.7922 146.52 21.0642V25.0002H135.48V30.4722C135.48 31.3682 135.56 32.1042 135.72 32.6802C135.912 33.2562 136.2 33.6722 136.584 33.9282C136.968 34.1842 137.432 34.3122 137.976 34.3122C138.552 34.3122 139.016 34.1842 139.368 33.9282C139.72 33.6402 139.976 33.2402 140.136 32.7282C140.296 32.1842 140.376 31.5122 140.376 30.7122V28.4082H146.472V30.2802C146.472 33.0962 145.768 35.2562 144.36 36.7602C142.952 38.2642 140.808 39.0162 137.928 39.0162ZM135.48 21.7842H140.376V19.1442C140.376 18.1842 140.296 17.4162 140.136 16.8402C139.976 16.2322 139.72 15.8002 139.368 15.5442C139.016 15.2562 138.52 15.1122 137.88 15.1122C137.304 15.1122 136.84 15.2562 136.488 15.5442C136.136 15.8322 135.88 16.3122 135.72 16.9842C135.56 17.6562 135.48 18.6162 135.48 19.8642V21.7842Z" fill="black"/>
    <path d="M146.699 38.5843L152.747 23.6563L146.939 10.8403H153.371L156.875 18.5203L159.947 10.8403H165.515L159.611 24.5683L165.947 38.5843H159.467L155.627 30.0883L152.411 38.5843H146.699Z" fill="black"/>
    <path d="M174.944 39.0162C172.864 39.0162 171.168 38.6322 169.856 37.8642C168.544 37.0642 167.568 35.9122 166.928 34.4082C166.32 32.8722 166.016 31.0322 166.016 28.8882V20.5362C166.016 18.3282 166.32 16.4722 166.928 14.9682C167.568 13.4642 168.544 12.3282 169.856 11.5602C171.2 10.7922 172.896 10.4082 174.944 10.4082C177.152 10.4082 178.864 10.8242 180.08 11.6562C181.328 12.4882 182.208 13.7042 182.72 15.3042C183.264 16.8722 183.536 18.7922 183.536 21.0642V25.0002H172.496V30.4722C172.496 31.3682 172.576 32.1042 172.736 32.6802C172.928 33.2562 173.216 33.6722 173.6 33.9282C173.984 34.1842 174.448 34.3122 174.992 34.3122C175.568 34.3122 176.032 34.1842 176.384 33.9282C176.736 33.6402 176.992 33.2402 177.152 32.7282C177.312 32.1842 177.392 31.5122 177.392 30.7122V28.4082H183.488V30.2802C183.488 33.0962 182.784 35.2562 181.376 36.7602C179.968 38.2642 177.824 39.0162 174.944 39.0162ZM172.496 21.7842H177.392V19.1442C177.392 18.1842 177.312 17.4162 177.152 16.8402C176.992 16.2322 176.736 15.8002 176.384 15.5442C176.032 15.2562 175.536 15.1122 174.896 15.1122C174.32 15.1122 173.856 15.2562 173.504 15.5442C173.152 15.8322 172.896 16.3122 172.736 16.9842C172.576 17.6562 172.496 18.6162 172.496 19.8642V21.7842Z" fill="black"/>
    <path d="M186.109 38.5839V10.8399H192.637V15.1119C193.597 13.4799 194.557 12.3119 195.517 11.6079C196.477 10.8719 197.533 10.5039 198.685 10.5039C198.877 10.5039 199.037 10.5199 199.165 10.5519C199.325 10.5519 199.501 10.5679 199.693 10.5999V17.3679C199.309 17.2079 198.877 17.0799 198.397 16.9839C197.949 16.8559 197.485 16.7919 197.005 16.7919C196.141 16.7919 195.357 16.9999 194.653 17.4159C193.949 17.8319 193.277 18.5199 192.637 19.4799V38.5839H186.109Z" fill="black"/>
    <path d="M209.239 39.0162C207.095 39.0162 205.367 38.6162 204.055 37.8162C202.775 36.9842 201.831 35.8162 201.223 34.3122C200.647 32.7762 200.359 30.9682 200.359 28.8882V20.5362C200.359 18.3922 200.647 16.5682 201.223 15.0642C201.831 13.5602 202.791 12.4082 204.103 11.6082C205.415 10.8082 207.127 10.4082 209.239 10.4082C211.223 10.4082 212.839 10.7282 214.087 11.3682C215.367 11.9762 216.295 12.9202 216.871 14.2002C217.447 15.4482 217.735 17.0322 217.735 18.9522V21.2562H211.591V18.8082C211.591 17.8482 211.511 17.0962 211.351 16.5522C211.223 15.9762 210.983 15.5762 210.631 15.3522C210.279 15.0962 209.815 14.9682 209.239 14.9682C208.663 14.9682 208.199 15.1282 207.847 15.4482C207.495 15.7362 207.239 16.2162 207.079 16.8882C206.951 17.5602 206.887 18.4882 206.887 19.6722V29.8482C206.887 31.6402 207.079 32.8562 207.463 33.4962C207.847 34.1042 208.455 34.4082 209.287 34.4082C209.927 34.4082 210.407 34.2642 210.727 33.9762C211.079 33.6882 211.303 33.2722 211.399 32.7282C211.527 32.1522 211.591 31.4642 211.591 30.6642V27.6882H217.735V30.3282C217.735 32.1842 217.431 33.7682 216.823 35.0802C216.247 36.3922 215.319 37.3842 214.039 38.0562C212.791 38.6962 211.191 39.0162 209.239 39.0162Z" fill="black"/>
    <path d="M220.22 38.584V10.84H226.748V38.584H220.22ZM220.22 6.424V1H226.748V6.424H220.22Z" fill="black"/>
    <path d="M237.47 39.0162C235.134 39.0162 233.214 38.3922 231.71 37.1442C230.206 35.8962 229.134 34.0722 228.494 31.6722L233.342 29.8002C233.726 31.3042 234.238 32.4562 234.878 33.2562C235.518 34.0562 236.35 34.4562 237.374 34.4562C238.142 34.4562 238.718 34.2642 239.102 33.8802C239.486 33.4962 239.678 32.9682 239.678 32.2962C239.678 31.5282 239.438 30.8402 238.958 30.2322C238.51 29.5922 237.726 28.8082 236.606 27.8802L233.246 25.0482C232.03 23.9922 231.038 22.9202 230.27 21.8322C229.534 20.7122 229.166 19.3202 229.166 17.6562C229.166 16.1522 229.502 14.8722 230.174 13.8162C230.878 12.7282 231.822 11.8962 233.006 11.3202C234.222 10.7122 235.566 10.4082 237.038 10.4082C239.278 10.4082 241.07 11.0802 242.414 12.4242C243.79 13.7362 244.67 15.4642 245.054 17.6082L240.782 19.4322C240.622 18.6642 240.382 17.9602 240.062 17.3202C239.774 16.6482 239.39 16.1042 238.91 15.6882C238.43 15.2722 237.87 15.0642 237.23 15.0642C236.558 15.0642 236.014 15.2722 235.598 15.6882C235.214 16.1042 235.022 16.6322 235.022 17.2722C235.022 17.8162 235.246 18.3762 235.694 18.9522C236.174 19.5282 236.846 20.1842 237.71 20.9202L241.118 23.9922C241.854 24.6322 242.558 25.3202 243.23 26.0562C243.902 26.7922 244.462 27.6242 244.91 28.5522C245.358 29.4482 245.582 30.4882 245.582 31.6722C245.582 33.2722 245.214 34.6162 244.478 35.7042C243.774 36.7922 242.798 37.6242 241.55 38.2002C240.334 38.7442 238.974 39.0162 237.47 39.0162Z" fill="black"/>
    <path d="M255.553 39.0162C253.473 39.0162 251.777 38.6322 250.465 37.8642C249.153 37.0642 248.177 35.9122 247.537 34.4082C246.929 32.8722 246.625 31.0322 246.625 28.8882V20.5362C246.625 18.3282 246.929 16.4722 247.537 14.9682C248.177 13.4642 249.153 12.3282 250.465 11.5602C251.809 10.7922 253.505 10.4082 255.553 10.4082C257.761 10.4082 259.473 10.8242 260.689 11.6562C261.937 12.4882 262.817 13.7042 263.329 15.3042C263.873 16.8722 264.145 18.7922 264.145 21.0642V25.0002H253.105V30.4722C253.105 31.3682 253.185 32.1042 253.345 32.6802C253.537 33.2562 253.825 33.6722 254.209 33.9282C254.593 34.1842 255.057 34.3122 255.601 34.3122C256.177 34.3122 256.641 34.1842 256.993 33.9282C257.345 33.6402 257.601 33.2402 257.761 32.7282C257.921 32.1842 258.001 31.5122 258.001 30.7122V28.4082H264.097V30.2802C264.097 33.0962 263.393 35.2562 261.985 36.7602C260.577 38.2642 258.433 39.0162 255.553 39.0162ZM253.105 21.7842H258.001V19.1442C258.001 18.1842 257.921 17.4162 257.761 16.8402C257.601 16.2322 257.345 15.8002 256.993 15.5442C256.641 15.2562 256.145 15.1122 255.505 15.1122C254.929 15.1122 254.465 15.2562 254.113 15.5442C253.761 15.8322 253.505 16.3122 253.345 16.9842C253.185 17.6562 253.105 18.6162 253.105 19.8642V21.7842Z" fill="black"/>
    <rect width="5.53" height="5.45" transform="translate(0 33.5498)" fill="#F7DB00"/>
    <path d="M0 38.9998V34.9767H5.53V38.9998H0ZM0 34.3363V33.5498H5.53V34.3363H0Z" fill="#F7DB00"/>
    <rect width="6.55" height="5.5" transform="translate(220.2 1)" fill="#F7DB00"/>
    <path d="M220.2 6.5V2.43997H226.75V6.5H220.2ZM220.2 1.79374V1H226.75V1.79374H220.2Z" fill="#F7DB00"/>
</svg>
